<?xml version="1.0" encoding="UTF-8"?>
<svg id="Layer_1" data-name="Layer 1" xmlns="http://www.w3.org/2000/svg" viewBox="0 0 2786.67 572.38">
  <defs>
    <style>
      .cls-1 {
        fill: none;
      }

      .cls-2 {
        fill: #fc0303;
      }

      .cls-3 {
        fill: #fff;
      }
    </style>
  </defs>
  <g>
    <path class="cls-3" d="M822.12,154.08h114.56v52.88h-45.86v50.1h42.92v50.26h-42.92v58.1h50.43v52.88h-119.13V154.08Z"/>
    <path class="cls-3" d="M1079.76,154.08l39.29,264.21h-70.22l-3.69-47.49h-24.58l-4.13,47.49h-71.03l35.05-264.21h99.31ZM1043.35,323.97c-3.48-29.93-6.97-66.92-10.46-110.97-7,50.59-11.4,87.58-13.19,110.97h23.65Z"/>
    <path class="cls-3" d="M1288.37,251.35h-68.71v-23.99c0-15.12-.65-24.59-1.96-28.4-1.31-3.81-4.41-5.71-9.3-5.71-4.24,0-7.13,1.63-8.65,4.9-1.52,3.26-2.29,11.64-2.29,25.13v126.8c0,11.86.76,19.67,2.29,23.42,1.52,3.75,4.57,5.63,9.14,5.63,5,0,8.4-2.12,10.2-6.37,1.8-4.24,2.69-12.51,2.69-24.81v-31.33h-13.87v-40.15h80.46v141.82h-43.18l-6.35-18.93c-4.68,8.16-10.59,14.28-17.72,18.36-7.13,4.08-15.54,6.12-25.23,6.12-11.54,0-22.35-2.8-32.42-8.4-10.07-5.6-17.72-12.54-22.95-20.81-5.23-8.27-8.49-16.94-9.8-26.03-1.31-9.08-1.96-22.71-1.96-40.88v-78.5c0-25.24,1.36-43.57,4.08-55,2.72-11.42,10.53-21.89,23.42-31.42,12.89-9.52,29.56-14.28,50.02-14.28s36.83,4.14,50.1,12.4c13.27,8.27,21.92,18.09,25.95,29.46,4.02,11.37,6.04,27.88,6.04,49.53v11.42Z"/>
    <path class="cls-3" d="M1383.67,154.08v211.34h41.78v52.88h-110.48V154.08h68.71Z"/>
    <path class="cls-3" d="M1442.1,154.08h114.56v52.88h-45.86v50.1h42.92v50.26h-42.92v58.1h50.43v52.88h-119.13V154.08Z"/>
    <path class="cls-3" d="M1639.89,154.08h69.2c18.71,0,33.1,1.47,43.17,4.41,10.06,2.94,17.62,7.18,22.68,12.73,5.06,5.55,8.49,12.27,10.28,20.15,1.79,7.89,2.69,20.1,2.69,36.64v23.01c0,16.87-1.74,29.16-5.22,36.88-3.48,7.73-9.87,13.65-19.17,17.79-9.3,4.14-21.46,6.2-36.47,6.2h-18.44v106.4h-68.71V154.08ZM1708.6,199.29v67.24c1.96.11,3.64.16,5.06.16,6.31,0,10.69-1.55,13.14-4.65,2.45-3.1,3.67-9.55,3.67-19.34v-21.71c0-9.03-1.42-14.9-4.24-17.63-2.83-2.72-8.71-4.08-17.62-4.08Z"/>
    <path class="cls-3" d="M1807.66,154.08h48.63c32.42,0,54.37,1.25,65.85,3.75,11.48,2.5,20.83,8.89,28.07,19.18,7.23,10.28,10.85,26.68,10.85,49.2,0,20.56-2.56,34.38-7.67,41.45-5.11,7.07-15.18,11.32-30.19,12.73,13.6,3.37,22.74,7.89,27.42,13.55,4.68,5.66,7.59,10.85,8.73,15.58s1.71,17.76,1.71,39.09v69.68h-63.81v-87.8c0-14.14-1.12-22.9-3.35-26.27-2.23-3.37-8.08-5.06-17.54-5.06v119.13h-68.71V154.08ZM1876.36,199.29v58.75c7.72,0,13.14-1.06,16.24-3.18,3.1-2.12,4.65-9,4.65-20.64v-14.52c0-8.38-1.5-13.87-4.49-16.48-2.99-2.61-8.46-3.92-16.4-3.92Z"/>
    <path class="cls-3" d="M2144.66,308.79c0,26.55-.63,45.34-1.88,56.38-1.25,11.04-5.17,21.13-11.75,30.27-6.58,9.14-15.48,16.16-26.68,21.05-11.21,4.9-24.26,7.34-39.17,7.34s-26.85-2.31-38.11-6.94-20.32-11.56-27.17-20.81c-6.85-9.25-10.93-19.31-12.24-30.19-1.3-10.88-1.96-29.92-1.96-57.12v-45.21c0-26.54.62-45.34,1.88-56.38,1.25-11.04,5.17-21.13,11.75-30.27,6.58-9.14,15.48-16.16,26.68-21.05,11.2-4.9,24.26-7.34,39.17-7.34s26.85,2.31,38.11,6.94c11.26,4.63,20.32,11.56,27.17,20.81,6.85,9.25,10.93,19.31,12.24,30.19,1.31,10.88,1.96,29.92,1.96,57.12v45.21ZM2075.95,221.97c0-12.29-.68-20.15-2.04-23.58-1.36-3.43-4.16-5.14-8.41-5.14-3.59,0-6.34,1.39-8.24,4.16-1.9,2.77-2.86,10.96-2.86,24.56v123.38c0,15.34.62,24.81,1.88,28.4,1.25,3.59,4.16,5.39,8.73,5.39s7.67-2.07,8.98-6.2c1.31-4.13,1.96-13.98,1.96-29.54v-121.42Z"/>
    <path class="cls-3" d="M2308.67,154.08v52.88h-40.8v211.34h-68.71v-211.34h-40.64v-52.88h150.14Z"/>
    <path class="cls-3" d="M2324.34,154.08h114.56v52.88h-45.86v50.1h42.92v50.26h-42.92v58.1h50.43v52.88h-119.13V154.08Z"/>
    <path class="cls-3" d="M2623.64,269.14h-68.71v-45.92c0-13.35-.73-21.68-2.2-25-1.47-3.31-4.71-4.97-9.71-4.97-5.66,0-9.25,2.01-10.77,6.04-1.52,4.03-2.28,12.73-2.28,26.11v122.72c0,12.84.76,21.22,2.28,25.13,1.52,3.92,4.95,5.88,10.28,5.88s8.46-1.96,10.04-5.89c1.58-3.93,2.37-13.14,2.37-27.65v-33.21h68.71v10.3c0,27.35-1.93,46.74-5.79,58.18-3.86,11.44-12.4,21.46-25.62,30.07-13.22,8.61-29.51,12.91-48.88,12.91s-36.72-3.65-49.77-10.93c-13.06-7.29-21.71-17.38-25.95-30.27-4.24-12.89-6.37-32.29-6.37-58.18v-77.19c0-19.04.65-33.32,1.96-42.84,1.31-9.52,5.19-18.69,11.67-27.5,6.47-8.81,15.45-15.75,26.93-20.81,11.48-5.06,24.67-7.59,39.58-7.59,20.24,0,36.94,3.91,50.1,11.73,13.16,7.82,21.81,17.58,25.95,29.26,4.13,11.68,6.2,29.85,6.2,54.51v25.1Z"/>
    <path class="cls-3" d="M2786.67,154.08v52.88h-40.8v211.34h-68.71v-211.34h-40.64v-52.88h150.14Z"/>
  </g>
  <g>
    <path class="cls-1" d="M424.11,61.2c3.35.48,5.07-.55,6.51-3.9l1.95-4.55-4.56-3.26c-2.5-1.78-7.18-3.54-10.4-3.9-3.47-.38-6.91.67-8.46,2.6l-2.6,3.25,6.51,4.56c3.57,2.5,8.55,4.84,11.05,5.2Z"/>
    <path class="cls-1" d="M402.13,220.59c5.81-.78,12.71-13.31,12.27-16.94-.54-4.52-2.43-5.93-4.71-4.74-2.86,1.49-3.54,12.26-10.36,14.12-7.27,1.99-5.35-7.44-6.81-11.63-.99-2.85-4.03-1.05-5.51.46-1.4,1.43-2.26,3.49-2.4,6.2-.23,4.15,1.43,7.26,2.8,8.79,2.37,2.65,9.21,4.47,14.72,3.74Z"/>
    <path class="cls-1" d="M412.23,169.68c-2.1,1.25-2.39,9.79-7.46,11.41-5.39,1.73-4.15-5.78-5.33-9.08-.79-2.24-3.03-.75-4.11.48-1.02,1.16-1.62,2.81-1.67,4.96-.09,3.29,1.22,5.73,2.28,6.91,1.82,2.05,6.98,3.36,11.09,2.66,4.32-.73,9.22-10.81,8.83-13.67-.5-3.57-1.95-4.66-3.63-3.67Z"/>
    <path class="cls-1" d="M380.81,124.98c-1.05,1.3-1.58,3.06-1.44,5.27.22,3.4,1.96,5.76,3.27,6.85,2.29,1.91,7.81,2.79,12.44,1.62,4.87-1.23,9.5-8.67,8.77-11.57-.91-3.61-3.84-3.34-5.66-2.13-2.28,1.51.05,6.27-5.84,7.76-7.66,1.95-5.37-5.43-6.89-8.76-.45-.97-3.54-.43-4.65.96Z"/>
    <path class="cls-1" d="M429.4,283.1c-.93,1.71,3.29,8.52.53,11.41-2.94,3.08-6.11-3.1-8.18-5.66-1.4-1.73-3.1.23-3.34,1.62-.23,1.32.79,2.94,1.58,4.84,1.23,2.93,3.05,4.69,4.21,5.42,2.02,1.28,5.78.6,8.45-.87,5.34-2.92,2.28-12.29.6-14.58-2.04-2.77-3.11-3.54-3.85-2.18Z"/>
    <path class="cls-1" d="M399.46,147.23c-.69-1.81-2.71-.63-3.69.35-.92.92-1.48,2.24-1.56,3.97-.11,2.65,1.04,4.63,1.96,5.59,1.62,1.67,6.22,2.78,9.9,2.26,3.89-.54,8.4-8.61,8.07-10.92-.4-2.88-1.68-3.77-3.2-2.99-1.9.98-2.26,7.86-6.81,9.11-4.85,1.34-3.66-4.7-4.67-7.37Z"/>
    <path class="cls-1" d="M321.55,226.83c-1.98,1.64-2.72,13.56-7.41,15.58-4.99,2.16-3.45-8.27-4.33-12.92-.6-3.16-2.72-1.19-3.76.48-.99,1.57-1.63,3.84-1.8,6.84-.26,4.6.8,8.06,1.69,9.76,1.55,2.94,6.15,5.01,9.92,4.22,3.97-.82,8.97-14.65,8.77-18.67-.25-5.01-1.5-6.59-3.08-5.29Z"/>
    <path class="cls-1" d="M406.99,230.84c-.93,1.52-.3,3.87-.1,6.49.31,4.02,1.98,6.86,3.23,8.2,2.17,2.31,7.63,2.9,11.98,2.12,8.67-1.54,8.87-14.11,7.63-17.54-1.5-4.14-2.61-5.48-4.25-4.1-2.07,1.73.52,11.61-4.61,14.1-5.46,2.64-6.92-6.09-8.56-9.99-1.1-2.64-4.34-.89-5.32.72Z"/>
    <path class="cls-1" d="M329.68,219.44c4.83-.71,10.8-13.15,10.51-16.78-.35-4.53-1.9-5.97-3.81-4.8-2.4,1.46-3.18,12.21-8.88,13.99-6.07,1.9-4.3-7.5-5.42-11.72-.76-2.85-3.32-1.09-4.58.4-1.19,1.42-1.95,3.46-2.12,6.17-.28,4.14,1.05,7.28,2.15,8.82,1.92,2.68,7.55,4.59,12.15,3.92Z"/>
    <path class="cls-1" d="M468.33,449.44c1.79,3.58,4.43,8.55,5.86,11.05,1.43,2.51,4.65,5.43,7.15,6.51,2.5,1.07,5.14,1.07,5.85,0,.72-1.08.43-6.34-.65-11.71-1.07-5.36-1.66-10.63-1.3-11.7.36-1.08,1.82.68,3.25,3.9,1.43,3.22,3.78,8.78,5.21,12.35,1.43,3.58,3.48,6.8,4.55,7.16,1.07.35,2.53-1.4,3.25-3.9.72-2.51,1.59-6.9,1.95-9.76l.65-5.2,2.6,7.15c2.07,5.69,3.4,7.02,6.51,6.5,2.25-.37,4.44-2.56,5.2-5.2.71-2.5,1.01-7.18.65-10.4-.36-3.22-2.7-8.2-5.2-11.06-2.52-2.87-8.05-6.07-12.36-7.15-4.29-1.07-10.44-2.25-13.66-2.6-3.22-.36-9.07-2.99-13-5.86-3.94-2.86-8.62-6.08-10.41-7.15-1.79-1.07-4.13-1.95-5.2-1.95s-2.83,1.17-3.9,2.6c-1.08,1.43-1.95,6.7-1.95,11.71s-.59,10.56-1.3,12.35l-1.31,3.25,7.16,1.3c5.72,1.05,7.8,2.61,10.4,7.81Z"/>
    <path class="cls-1" d="M350.22,249.05c10.05-.35,12.29-14.52,11.44-18.59-1.03-4.92-2.07-6.61-4.14-5.32-2.61,1.62-1.28,13.2-7.47,15.18-6.59,2.11-6.85-7.98-8.07-12.65-.82-3.16-4.76-1.7-6.13-.05-1.29,1.57-.95,4.33-1.15,7.33-.3,4.59,1.14,8.06,2.33,9.77,2.08,2.96,8.15,4.5,13.19,4.33Z"/>
    <path class="cls-1" d="M377.41,204.2c.18-4.54-1.47-6.24-3.9-5.42-3.06,1.02-5.42,11.55-12.45,12.32-7.49.83-4.12-8.19-4.9-12.56-.53-2.97-3.81-1.67-5.52-.4-1.6,1.19-2.77,3.08-3.34,5.74-.88,4.06.28,7.4,1.39,9.12,1.92,2.99,8.39,5.86,13.95,6,5.85.15,14.63-11.15,14.77-14.8Z"/>
    <path class="cls-1" d="M387.71,176.72c.03-3.61-1.24-4.9-3.04-4.16-2.27.91-3.82,9.32-9.07,10.18-5.59.91-3.25-6.34-3.93-9.77-.46-2.33-2.89-1.19-4.14-.13-1.17,1-2.01,2.54-2.38,4.66-.57,3.24.36,5.85,1.23,7.17,1.5,2.3,6.41,4.35,10.57,4.27,4.39-.09,10.73-9.33,10.76-12.22Z"/>
    <path class="cls-1" d="M339.46,169.77c-.42-2.63-2.88-1.29-4.15-.07-1.2,1.16-2.07,2.92-2.48,5.33-.63,3.69.26,6.63,1.11,8.12,1.46,2.58,6.34,4.81,10.52,4.64,4.4-.18,10.92-10.77,11-14.06.1-4.09-1.14-5.52-2.97-4.66-2.29,1.08-3.99,10.65-9.27,11.72-5.62,1.13-3.15-7.13-3.76-11.02Z"/>
    <path class="cls-1" d="M371.95,158.61c1.86,1.54,6.44,2.33,10.33,1.48,4.09-.89,8.14-6.7,7.6-9.01-.67-2.87-3.11-2.7-4.66-1.78-1.94,1.16-.12,4.96-5.06,6.05-6.44,1.41-4.35-4.39-5.53-7.05-.35-.77-2.94-.4-3.91.68-.91,1.02-1.39,2.4-1.32,4.15.1,2.69,1.48,4.59,2.55,5.48Z"/>
    <path class="cls-1" d="M323.68,156.34c4.6-.4,9.86-6.18,9.6-8.78-.33-3.25-3.03-3.41-4.85-2.62-2.29.99-.84,5.42-6.41,5.9-7.24.63-4.13-5.42-5.05-8.5-.27-.89-3.16-.85-4.37.19-1.14.98-1.86,2.43-2.04,4.36-.27,2.95.98,5.23,2.02,6.35,1.82,1.96,6.72,3.48,11.1,3.1Z"/>
    <path class="cls-1" d="M299.14,217.14c3.96-.58,8.86-10.77,8.62-13.75-.29-3.7-1.56-4.89-3.13-3.93-1.96,1.19-2.6,10-7.27,11.46-4.98,1.56-3.52-6.14-4.44-9.6-.63-2.34-2.72-.89-3.76.33-.97,1.16-1.59,2.83-1.73,5.05-.23,3.4.86,5.97,1.76,7.23,1.57,2.2,6.19,3.76,9.95,3.21Z"/>
    <path class="cls-1" d="M369.04,107.53c6.29-.89,11.67-9.15,12.98-12.7,1.31-3.55-2.4-4.44-4.85-3.18-3.09,1.59-3.7,6.49-11.3,7.57-9.9,1.4-7.57-7.47-7.57-9.9,0-1.35-2.59-1.1-4.56-.11-1.9.95-2.91,2.63-3.66,5.34-.92,3.33,1.17,8.3,2.68,9.86,2.61,2.71,10.3,3.96,16.28,3.12Z"/>
    <path class="cls-1" d="M298.52,248.11c-2.08,1.64-1.09,13.21-6.03,15.23-5.26,2.15-5.4-7.94-6.34-12.6-.63-3.15-3.77-1.67-4.87-.01-1.04,1.58-.79,4.33-.97,7.33-.26,4.59.86,8.06,1.8,9.76,1.63,2.95,6.45,4.45,10.46,4.24,7.99-.41,9.86-14.59,9.21-18.66-.78-4.91-1.6-6.59-3.26-5.29Z"/>
    <path class="cls-1" d="M312.3,185.2c4.39.32,12.08-9.46,12.53-12.71.57-4.05-.51-5.62-2.42-4.97-2.39.81-5.18,10.12-10.55,10.58-5.71.48-2.31-7.44-2.48-11.37-.11-2.67-2.71-1.62-4.11-.55-1.32,1.01-2.38,2.66-3.07,5.01-1.05,3.6-.5,6.62.17,8.19,1.16,2.73,5.75,5.51,9.93,5.82Z"/>
    <path class="cls-1" d="M364.2,137.32c5.21-.73,11.26-11.56,10.83-14.66-.54-3.87-2.26-5.07-4.3-4.02-2.55,1.32-3.03,10.55-9.15,12.23-6.51,1.8-4.9-6.31-6.27-9.89-.92-2.43-3.63-.85-4.95.46-1.24,1.24-1.99,3.01-2.09,5.34-.15,3.56,1.39,6.22,2.63,7.51,2.17,2.24,8.34,3.72,13.3,3.03Z"/>
    <path class="cls-1" d="M332.29,135.14c5.22-.73,10.89-7.96,10.45-11.07-.54-3.86-3.62-3.91-5.65-2.86-2.55,1.32-.66,6.54-6.96,7.43-8.21,1.16-4.98-6.27-6.19-9.9-.36-1.07-3.64-.86-4.96.46-1.24,1.24-1.98,3.01-2.09,5.34-.15,3.56,1.39,6.21,2.64,7.51,2.16,2.24,7.81,3.79,12.76,3.09Z"/>
    <path class="cls-1" d="M340.77,154.13c.25,2.96,1.88,4.98,3.11,5.9,2.13,1.61,7.22,2.24,11.46,1.1,4.47-1.19,8.63-7.81,7.92-10.33-.89-3.13-3.58-2.81-5.24-1.72-2.08,1.38.13,5.48-5.27,6.93-7.02,1.89-5.02-4.61-6.46-7.48-.42-.83-3.26-.29-4.27.95-.95,1.17-1.41,2.72-1.25,4.65Z"/>
    <path class="cls-1" d="M368.84,431.88c-1.44-1.07-3.19-7.8-3.91-14.96-.95-9.5-2.17-13.18-4.55-13.65-2.05-.41-3.97,1.02-5.2,3.9-1.07,2.5-2.54,9.23-3.25,14.96-.86,6.82-2.42,10.85-4.56,11.7-1.84.74-4.37-.11-5.85-1.95-1.43-1.79-2.31-8.52-1.95-14.96s-.52-13.17-1.95-14.95c-1.43-1.79-3.48-3.26-4.55-3.26s-2.83,2.05-3.9,4.56c-1.08,2.5-1.96,7.77-1.96,11.7,0,4.38-1.26,7.91-3.25,9.11-1.79,1.07-5,1.65-7.15,1.3-2.91-.49-3.74.18-3.25,2.6.36,1.79,3.28,4.71,6.5,6.5,3.22,1.79,7.32,5.01,9.11,7.15,2.52,3.04,7.16,4.05,20.81,4.56,9.65.35,20.19.35,23.41,0,3.22-.36,9.65-.65,14.3-.65s11.09-.3,14.31-.65c3.22-.36,11.12-1.24,17.56-1.95,6.44-.72,14.63-3.06,18.21-5.21,3.58-2.14,7.09-5.95,7.8-8.45.89-3.12.28-4.96-1.95-5.85-1.84-.74-6.07.67-9.75,3.25-4.32,3.02-7.38,3.89-9.11,2.6-1.43-1.07-3.48-4.88-4.55-8.46-1.1-3.65-3.38-6.78-5.2-7.15-1.79-.36-4.13.81-5.21,2.6-1.07,1.79-2.24,5.3-2.6,7.81-.5,3.56-1.92,4.69-6.5,5.2l-5.85.65-2.6-5.2c-1.43-2.86-3.78-9.01-5.21-13.66-1.43-4.65-3.77-9.04-5.2-9.75-1.77-.89-3.01.14-3.9,3.25-.72,2.5-1.01,8.94-.65,14.3.44,6.62-.4,10.6-2.6,12.36-1.8,1.44-4.41,1.73-5.85.65Z"/>
    <path class="cls-1" d="M388.53,249.69c8.67-1.59,8.8-14.16,7.54-17.58-1.52-4.13-2.63-5.46-4.27-4.08-2.05,1.74.58,11.61-4.53,14.12-5.45,2.67-6.96-6.05-8.61-9.94-1.12-2.64-4.35-.87-5.32.74-.92,1.53-.28,3.87-.07,6.5.33,4.02,2.02,6.85,3.28,8.17,2.18,2.31,7.64,2.87,11.98,2.07Z"/>
    <path class="cls-1" d="M397.68,286.87c-1.73.87-2.18,8.87-6.1,9.66-4.17.84-3.24-6.05-3.47-9.33-.15-2.22-2.66-1.59-3.66-.58-.94.95-1.04,2.85-1.48,4.87-.67,3.1-.18,5.59.35,6.86.93,2.2,4.39,3.79,7.43,4.12,6.04.67,8.91-8.77,8.84-11.61-.09-3.44-.53-4.68-1.91-3.99Z"/>
    <path class="cls-1" d="M377.39,260.92c-1.55,1.59,1.38,9.48-2.62,11.93-4.26,2.61-6.17-4.42-7.83-7.49-1.12-2.07-3.63-.37-4.3,1.02-.64,1.32.07,3.2.45,5.33.57,3.27,2.18,5.46,3.31,6.45,1.96,1.72,6.48,1.76,9.98.77,6.98-1.97,6.12-12.28,4.83-14.99-1.57-3.27-2.58-4.28-3.82-3.02Z"/>
    <path class="cls-1" d="M365.41,288.48c-.09-3.44-.53-4.68-1.91-3.99-1.73.87-2.18,8.86-6.1,9.65-4.17.85-3.24-6.04-3.46-9.32-.16-2.22-2.67-1.59-3.67-.58-.94.95-1.04,2.85-1.47,4.87-.68,3.1-.19,5.59.34,6.86.93,2.2,4.39,3.79,7.43,4.12,6.04.66,8.91-8.77,8.84-11.61Z"/>
    <path class="cls-1" d="M350.42,256.15c-2.92.92-4.5,12.48-10.96,12.87-6.88.42-4.62-9.42-4.64-14.24-.01-3.27-4.16-2.83-5.9-1.56-1.63,1.2-1.99,3.95-2.92,6.81-1.43,4.37-.91,8.09-.18,10.04,1.27,3.39,6.74,6.37,11.64,7.44,9.77,2.14,15.44-11.04,15.63-15.19.23-5.02-.35-6.91-2.67-6.17Z"/>
    <path class="cls-1" d="M418.98,267.23c-.21-3.62-.77-4.93-2.39-4.23-2.04.88-2.31,9.29-6.94,10.04-4.93.81-4.04-6.42-4.42-9.88-.25-2.35-3.21-1.72-4.37-.69-1.09.98-1.14,2.99-1.6,5.11-.7,3.24-.04,5.88.63,7.22,1.17,2.34,5.34,4.08,8.96,4.49,7.2.81,10.3-9.06,10.13-12.06Z"/>
    <path class="cls-1" d="M320.06,439.03c-1.79-1.43-5.3-3.18-7.8-3.9-3.44-.98-4.87-3.05-5.86-8.45-.73-4.02-2.72-7.73-4.55-8.46-1.79-.71-3.83-1.59-4.55-1.95-.72-.36-2.76.82-4.55,2.6-1.79,1.79-4.72,7.06-6.51,11.71-2.52,6.57-4.55,8.89-9.1,10.4-3.22,1.08-7.9,2.83-10.4,3.91-2.51,1.07-5.43,3.41-6.51,5.2-1.07,1.79-2.24,5.88-2.6,9.1-.36,3.22.52,8.78,1.95,12.36s4.65,7.67,7.16,9.1l4.55,2.61,1.3-5.21c.71-2.86,1.59-7.54,1.95-10.4l.65-5.21,1.3,5.21c.72,2.86,2.18,7.25,3.25,9.75,1.07,2.51,3.42,4.85,5.2,5.2,1.79.36,3.55.07,3.91-.65.35-.71,1.23-3.34,1.95-5.85.71-2.5,1.88-5.43,2.6-6.5.71-1.07,1.59.39,1.95,3.25.36,2.86,2.11,5.79,3.9,6.5,1.79.72,4.42.43,5.85-.65,1.43-1.07,3.19-7.22,3.91-13.65l1.3-11.71,5.85-3.25c3.22-1.79,6.14-4.42,6.5-5.85.36-1.43-.81-3.78-2.6-5.21Z"/>
    <path class="cls-1" d="M323.59,275.63c-2.5,1-3.14,11.2-8.79,11.95-6.01.81-4.67-7.94-5-12.15-.23-2.86-3.85-2.21-5.28-.99-1.36,1.15-1.5,3.58-2.13,6.14-.96,3.91-.26,7.13.51,8.79,1.33,2.88,6.33,5.14,10.71,5.77,8.72,1.24,12.84-10.64,12.73-14.28-.13-4.4-.76-6.02-2.75-5.23Z"/>
    <path class="cls-2" d="M740.17,292.06c-1.08-7.87-2.54-20.74-3.26-28.61-.71-7.87-2.47-22.8-3.9-33.17s-3.18-21.78-3.9-25.36c-.71-3.58-3.06-13.23-5.2-21.46-2.15-8.23-6.54-21.4-9.76-29.27-3.22-7.86-9.65-21.03-14.3-29.26-4.65-8.23-11.38-19.05-14.96-24.06s-11.19-14.96-16.91-22.11c-5.72-7.16-18.89-21.2-29.26-31.22-10.38-10.01-21.2-19.38-24.07-20.81-2.86-1.43-8.12-2.89-11.7-3.25-4.08-.41-8.2.8-11.06,3.25-2.5,2.15-5.13,6.25-5.85,9.11-.71,2.86-1.59,12.22-1.95,20.81-.36,8.58-2.41,21.75-4.55,29.26-2.15,7.51-7.42,19.8-11.71,27.31-4.29,7.52-13.07,18.93-19.51,25.37s-15.21,14.04-19.51,16.91c-4.29,2.86-10.14,6.37-13,7.8-2.86,1.43-7.84,3.48-11.06,4.55-3.22,1.07-8.19,2.54-11.05,3.25-2.87.72-11.64,1.6-19.51,1.95-.76.03-1.55.06-2.35.07-7.51.11-16.54-.73-21.07-2.02-5-1.43-12.61-4.94-16.9-7.8-4.52-3.01-9.73-8.77-12.36-13.66-2.5-4.65-5.14-12.55-5.85-17.56-.72-5-1.3-12.32-1.3-16.25s1.46-10.67,3.25-14.96c1.98-4.76,5.28-8.82,8.45-10.41,2.86-1.43,7.25-2.89,9.76-3.25,2.5-.36,7.18.52,10.4,1.95,3.22,1.43,7.32,4.65,9.11,7.16,1.79,2.5,4.42,6.01,5.85,7.8l2.6,3.25,3.25-3.9c1.79-2.15,3.84-7.12,4.56-11.06.1-.58.19-1.2.25-1.85.19-1.97.18-4.19,0-6.25-.17-1.87-.47-3.6-.91-4.9-.34-1.04-.88-2.18-1.54-3.3-1.38-2.34-3.26-4.6-4.96-5.81-2.5-1.78-7.48-2.96-11.05-2.6-3.58.36-8.56.95-11.06,1.3l-4.55.65,2.6-4.55c1.43-2.5,3.77-6.01,5.2-7.8s2.31-5.01,1.95-7.16c-.35-2.14-3.28-6.53-6.5-9.75s-8.49-7.02-11.71-8.45c-3.21-1.44-9.36-3.48-13.65-4.56-4.29-1.07-12.2-1.36-17.56-.65-5.37.72-13.56,3.35-18.21,5.86-4.65,2.5-14.6,10.69-22.11,18.2-7.51,7.52-16.88,17.17-20.81,21.46-1.16,1.26-2.3,2.58-3.35,3.86-2.55,3.08-4.6,5.94-5.1,7.2-.72,1.79-.72,4.13,0,5.2.71,1.08,5.98.78,11.7-.65,5.72-1.43,10.99-2.01,11.71-1.3.71.72.13,1.6-1.3,1.95-1.43.36-4.65,2.7-7.16,5.21s-9.23,6.01-14.95,7.8c-7.33,2.29-11.95,5.17-15.61,9.75-2.86,3.58-6.08,8.56-7.16,11.06-1.36,3.18-.97,5.33,1.3,7.15,1.79,1.43,2.96,3.77,2.61,5.21-.36,1.43-2.7,3.77-5.21,5.2-2.5,1.43-10.69,4.06-18.21,5.85-6.02,1.43-15.67,2.84-23.68,3.53-1.99.17-3.87.3-5.58.37-8.58.36-20.58-.81-26.66-2.6s-14.86-5.59-19.51-8.45c-4.65-2.86-11.38-8.72-14.96-13.01-3.58-4.29-7.97-11.61-9.75-16.26-1.79-4.65-3.55-12.55-3.91-17.56-.35-5,.52-12.61,1.96-16.9,1.43-4.3,5.23-11.32,8.45-15.61,3.22-4.29,8.78-10.15,12.36-13.01,3.57-2.86,10.01-8.42,14.3-12.35,5.69-5.22,7.98-8.92,8.46-13.66.35-3.58-.52-8.55-1.95-11.06-1.44-2.5-4.07-5.43-5.86-6.5-1.79-1.07-8.52-2.24-14.95-2.6-7.94-.44-17.57,1.23-29.92,5.2-10.01,3.22-24.94,9.37-33.17,13.66-8.22,4.29-20.51,11.9-27.31,16.91-6.79,5-14.7,11.44-17.56,14.3-2.86,2.87-8.13,9.01-11.7,13.66-3.58,4.65-11.48,16.36-17.56,26.01-6.08,9.66-13.11,21.66-15.61,26.67-2.5,5-6.31,14.66-8.45,21.46-2.15,6.79-5.95,19.08-8.46,27.31-2.5,8.23-5.72,19.64-7.15,25.36-1.43,5.73-6.11,23.28-10.41,39.02-4.29,15.74-9.26,33.3-11.05,39.02-1.79,5.72-3.84,13.92-4.55,18.21-.72,4.29-1.6,11.02-1.95,14.96-.36,3.93.22,12.13,1.3,18.21,1.07,6.08,5.17,22.46,9.1,36.41s10.67,36.78,14.96,50.73c4.29,13.95,9.56,29.75,11.7,35.12,2.15,5.36,4.78,10.04,5.86,10.4,1.07.36,2.53-1.4,3.25-3.9.71-2.51,1.01-7.77.65-11.71-.36-3.93-4.16-16.52-8.46-27.96-4.29-11.45-11.02-30.47-14.95-42.27-3.94-11.8-8.62-27.02-10.41-33.82-1.79-6.79-3.54-16.74-3.9-22.11-.36-5.36,1.11-17.36,3.25-26.66,2.15-9.3,6.54-26.27,9.76-37.72,3.22-11.45,10.24-35.15,15.6-52.68,5.37-17.52,12.68-39.47,16.26-48.77,3.58-9.3,9.14-20.71,12.36-25.36,3.22-4.65,9.65-11.38,14.3-14.96,4.65-3.58,13.14-8.55,18.86-11.05,5.73-2.51,15.38-5.43,21.46-6.51,6.08-1.07,14.57-1.36,18.86-.65,4.3.72,9.86,2.77,12.36,4.55,2.5,1.79,6.6,6.18,9.1,9.76,2.51,3.58,7.78,12.35,11.71,19.51,3.93,7.15,9.2,15.05,11.71,17.56,2.5,2.5,8.06,6.89,12.35,9.75,4.29,2.86,11.9,6.67,16.91,8.46,5.01,1.78,14.37,4.42,20.81,5.85s18.14,3.48,26.01,4.55l1.68.23,12.63,1.72,1.95,4.55c1.07,2.51,1.07,7.78,0,11.71-1.07,3.93-4.88,13.3-8.45,20.81-2.18,4.58-4.45,9.64-6.13,13.61-1.07,2.54-1.91,4.64-2.33,5.9l-1.95,5.85,3.9-1.3c.12-.04.25-.09.38-.16,2.19-1.05,5.37-5.15,7.43-9.59,2.14-4.65,4.48-9.34,5.2-10.41.71-1.07,1.59,3.32,1.95,9.76.36,6.43-.81,19.31-2.6,28.61-1.79,9.3-4.13,24.22-5.2,33.17-1.08,8.94-1.66,18.3-1.3,20.81l.65,4.55,7.8,1.3c4.29.71,10.14,1.01,13.01.65,2.86-.36,7.25-1.24,9.75-1.95,2.5-.72,9.24-1.59,14.96-1.95,5.72-.36,13.92.81,18.21,2.6,4.29,1.79,9.56,5.01,11.7,7.15.65.65,1.39,1.44,2.17,2.31,1.79,2.01,3.74,4.39,4.99,6.15,1.78,2.5,4.42,8.65,5.85,13.65,1.43,5.01,2.89,16.13,3.25,24.72.36,8.58-.23,16.77-1.3,18.2-1.07,1.44-2.54,2.31-3.25,1.96-.72-.36-1.89-2.7-2.6-5.21-.72-2.5-2.47-11.87-3.9-20.81-1.7-10.58-4.42-18.98-7.81-24.06-2.86-4.29-8.13-9.56-11.7-11.7-1.75-1.05-4.33-2.09-7.1-2.9-2.88-.85-5.95-1.48-8.51-1.66-4.44-.31-8.39.21-12.23,1.66-1.57.59-3.12,1.33-4.68,2.24-4.52,2.64-10.54,8.66-14.31,14.31-3.57,5.37-7.67,12.1-9.1,14.96s-2.31,6.37-1.95,7.8,2.4,3.48,4.55,4.56c2.15,1.07,4.19,3.12,4.55,4.55.36,1.43-.52,4.06-1.95,5.85-1.43,1.79-4.36,5.01-6.5,7.15-2.15,2.15-4.49,5.37-5.2,7.16-.96,2.38-.26,3.42,2.6,3.9,2.14.36,4.78,1.82,5.85,3.25,1.07,1.43,1.07,4.36,0,6.5-1.07,2.15-4,5.66-6.5,7.81-2.51,2.14-4.85,5.66-5.21,7.8-.42,2.57.91,4.79,3.91,6.5,2.5,1.44,6.3,3.48,8.45,4.56,2.46,1.22,3.66,3.39,3.25,5.85-.48,2.92-3.1,4.56-10.4,6.5-7.07,1.89-11.19,4.39-14.96,9.11-4.11,5.13-6.84,6.64-13.01,7.15l-7.8.65,7.8-8.45c4.3-4.65,8.68-9.63,9.76-11.06,1.4-1.87-1.52-2.23-10.41-1.3-6.79.72-20.55,2.76-30.56,4.55-10.02,1.79-23.77,4.13-30.57,5.21-6.79,1.07-18.79,3.12-26.66,4.55-7.87,1.43-19.57,3.48-26.01,4.55-6.44,1.07-18.73,3.12-27.32,4.55-8.58,1.43-23.8,4.07-33.81,5.86-10.02,1.78-26.11,4.71-35.77,6.5-9.66,1.79-18.14,3.84-18.86,4.55-.71.72,3.09,1.59,8.45,1.95,5.37.36,16.78-.23,25.37-1.3,8.58-1.07,22.63-2.83,31.21-3.9,8.59-1.07,22.93-2.83,31.87-3.9,8.94-1.08,26.5-3.12,39.02-4.56,12.52-1.43,28.03-2.89,34.46-3.25,6.44-.35,12.29-.94,13.01-1.3.72-.36,4.52-.06,8.45.65l7.16,1.3-3.25,4.56c-1.79,2.5-7.06,6.89-11.71,9.75-4.65,2.86-9.92,6.37-11.71,7.8-1.78,1.44-2.95,2.9-2.6,3.26.36.35.95.35,1.3,0,.36-.36.95-.36,1.3,0,.36.35,3.29.35,6.51,0,3.22-.36,12.29-1.53,20.16-2.61,7.87-1.07,18.99-2.53,24.71-3.25,5.72-.71,12.75-1,15.61-.65,2.86.36,7.54,2.41,10.4,4.56,2.86,2.14,8.72,4.48,13.01,5.2,4.29.71,10.73,1.3,14.31,1.3s10.6-1.47,15.6-3.25c5.01-1.79,11.45-4.43,14.31-5.86,2.86-1.43,8.71-3.48,13.01-4.55,4.29-1.07,15.99-2.53,26.01-3.25,10.01-.72,22.6-1.3,27.96-1.3s14.44-.59,20.16-1.3c5.73-.72,18.31-1.89,27.97-2.6,9.65-.72,20.77-1.3,24.71-1.3s10.37,1.75,14.31,3.9c3.93,2.14,10.66,4.49,14.95,5.2,4.29.72,9.86.72,12.36,0,2.5-.71,6.6-2.18,9.1-3.25,2.51-1.07,6.6-3.12,9.11-4.55,2.5-1.43,6.01-4.07,7.8-5.86,1.79-1.78,5.01-3.54,7.15-3.9,2.15-.36,4.49.23,5.21,1.3.71,1.08-.17,3.71-1.95,5.86-1.79,2.14-5.3,5.36-7.81,7.15-2.5,1.79-4.84,3.84-5.2,4.55-.36.72,5.2.42,12.36-.65,7.15-1.07,21.2-3.71,31.21-5.85,10.02-2.15,26.4-5.66,36.42-7.81,10.01-2.14,30.21-6.24,44.87-9.1,14.67-2.86,33.1-6.96,40.97-9.1,7.87-2.15,14.02-4.49,13.66-5.21-.36-.71-5.04-1.3-10.41-1.3s-17.07.88-26.01,1.95c-8.94,1.08-21.53,2.25-27.96,2.61-6.44.35-14.34.94-17.56,1.3-3.22.35-11.71.65-18.86.65s-13.89-.59-14.96-1.3c-1.07-.72-.78-3.06.65-5.21,1.43-2.14,2.9-4.48,3.25-5.2.36-.71-4.32-1.3-10.4-1.3s-13.69.29-16.91.65c-3.22.36-12,1.24-19.51,1.95-7.51.72-15.41,1.01-17.56.65-2.14-.36-5.66-2.4-7.8-4.55-2.15-2.15-5.95-4.78-8.46-5.85-2.5-1.08-10.4-3.13-17.55-4.56-8.68-1.73-13.88-3.9-15.61-6.5-1.43-2.15-2.02-5.95-1.3-8.45l1.3-4.56-7.16-5.85c-4.51-3.69-7.39-7.77-7.8-11.05-.36-2.87-.36-6.38,0-7.81s-1.11-4.65-3.25-7.15c-2.45-2.86-3.66-6.97-3.25-11.06l.65-6.5-8.46-10.4c-4.65-5.73-11.38-12.46-14.95-14.96-3.58-2.51-9.73-5.43-13.66-6.51-3.93-1.07-9.79-1.65-13.01-1.3-3.22.36-7.9,2.7-10.4,5.21-2.51,2.5-5.72,7.18-7.16,10.4-1.43,3.22-2.89,8.49-3.25,11.71-.35,3.22-.35,8.48,0,11.7.36,3.22.65,10.25.65,15.61s-.87,10.05-1.95,10.41c-1.07.35-3.41-1.99-5.2-5.21-1.79-3.22-3.84-8.78-4.55-12.35-.72-3.58-1.3-9.43-1.3-13.01s.87-10.01,1.95-14.31c1.07-4.29,4.58-11.6,7.8-16.25,1.2-1.74,2.54-3.38,3.95-4.85,2.77-2.9,5.78-5.15,8.41-6.21,3.57-1.43,10.89-2.89,16.26-3.25,5.36-.36,12.09-.07,14.95.65,2.86.71,6.08,1.59,7.16,1.95,1.07.36,3.41-.52,5.2-1.95,1.79-1.43,3.84-4.65,4.55-7.15.72-2.51,1.01-7.78.65-11.71-.36-3.93-.94-9.49-1.3-12.36-.36-2.86.52-6.08,1.95-7.15,1.98-1.48,3.22-.71,5.2,3.25,1.44,2.86,3.48,11.35,4.56,18.86,1.07,7.51,3.12,15.71,4.55,18.21s3.48,5.14,4.55,5.85c1.07.72.49-8.65-1.3-20.81-1.79-12.16-4.42-27.08-5.85-33.16-2.05-8.71-3.85-11.89-8.46-14.96-3.22-2.15-7.02-6.24-8.45-9.1-1.43-2.87-3.77-10.77-5.2-17.56-1.43-6.8-2.02-14.7-1.3-17.56.71-2.86,2.76-6.08,4.55-7.16,1.79-1.07,6.76-2.24,11.05-2.6,4.3-.35,10.44-.35,13.66,0,1.97.22,5.79.31,10.01.25,2.69-.02,5.55-.11,8.2-.25,6.8-.35,17.62-1.52,24.06-2.6,6.44-1.07,16.39-3.7,22.11-5.85,5.72-2.15,15.09-7.41,20.81-11.71,5.72-4.29,17.14-16.29,25.36-26.66,8.23-10.37,18.18-21.2,22.11-24.06,3.94-2.86,9.79-6.08,13.01-7.15,3.22-1.08,11.41-2.25,18.21-2.61,6.81-.35,18.2,1.11,25.36,3.26,7.16,2.14,16.81,6.53,21.46,9.75,4.65,3.22,10.8,9.07,13.66,13.01,2.86,3.93,6.96,11.83,9.1,17.56,2.15,5.72,5.95,19.47,8.46,30.56,2.5,11.09,5.14,22.5,5.85,25.36.72,2.86,2.47,11.06,3.9,18.21,1.43,7.15,3.48,17.4,4.56,22.76,1.07,5.37,3.7,20,5.85,32.52,2.14,12.52,4.19,26.56,4.55,31.21.47,6.09-.81,10.83-4.55,16.91-2.86,4.65-7.84,14.6-11.06,22.11-3.22,7.51-9.07,23.02-13,34.47-3.94,11.44-7.74,23.15-8.46,26.01-.91,3.65-.32,5.59,1.95,6.51,1.79.71,5.01.71,7.16,0,2.21-.74,5.3-4.68,7.15-9.11,1.79-4.29,5.89-16,9.1-26.01,3.22-10.02,8.2-23.19,11.06-29.27,2.86-6.08,7.25-14.86,9.75-19.51,3.01-5.58,4.56-12.42,4.56-20.16,0-6.43-.88-18.14-1.95-26.01ZM452.08,437.08c.71-1.79,1.3-7.35,1.3-12.35s.87-10.28,1.95-11.71c1.07-1.43,2.83-2.6,3.9-2.6s3.41.88,5.2,1.95c1.79,1.07,6.47,4.29,10.41,7.15,3.93,2.87,9.78,5.5,13,5.86,3.22.35,9.37,1.53,13.66,2.6,4.31,1.08,9.84,4.28,12.36,7.15,2.5,2.86,4.84,7.84,5.2,11.06.36,3.22.06,7.9-.65,10.4-.76,2.64-2.95,4.83-5.2,5.2-3.11.52-4.44-.81-6.51-6.5l-2.6-7.15-.65,5.2c-.36,2.86-1.23,7.25-1.95,9.76-.72,2.5-2.18,4.25-3.25,3.9-1.07-.36-3.12-3.58-4.55-7.16-1.43-3.57-3.78-9.13-5.21-12.35-1.43-3.22-2.89-4.98-3.25-3.9-.36,1.07.23,6.34,1.3,11.7,1.08,5.37,1.37,10.63.65,11.71-.71,1.07-3.35,1.07-5.85,0-2.5-1.08-5.72-4-7.15-6.51-1.43-2.5-4.07-7.47-5.86-11.05-2.6-5.2-4.68-6.76-10.4-7.81l-7.16-1.3,1.31-3.25ZM420.87,240.11c5.13-2.49,2.54-12.37,4.61-14.1,1.64-1.38,2.75-.04,4.25,4.1,1.24,3.43,1.04,16-7.63,17.54-4.35.78-9.81.19-11.98-2.12-1.25-1.34-2.92-4.18-3.23-8.2-.2-2.62-.83-4.97.1-6.49.98-1.61,4.22-3.36,5.32-.72,1.64,3.9,3.1,12.63,8.56,9.99ZM317.53,215.52c-1.1-1.54-2.43-4.68-2.15-8.82.17-2.71.93-4.75,2.12-6.17,1.26-1.49,3.82-3.25,4.58-.4,1.12,4.22-.65,13.62,5.42,11.72,5.7-1.78,6.48-12.53,8.88-13.99,1.91-1.17,3.46.27,3.81,4.8.29,3.63-5.68,16.07-10.51,16.78-4.6.67-10.23-1.24-12.15-3.92ZM315.86,250.79c-3.77.79-8.37-1.28-9.92-4.22-.89-1.7-1.95-5.16-1.69-9.76.17-3,.81-5.27,1.8-6.84,1.04-1.67,3.16-3.64,3.76-.48.88,4.65-.66,15.08,4.33,12.92,4.69-2.02,5.43-13.94,7.41-15.58,1.58-1.3,2.83.28,3.08,5.29.2,4.02-4.8,17.85-8.77,18.67ZM343.22,180.79c5.28-1.07,6.98-10.64,9.27-11.72,1.83-.86,3.07.57,2.97,4.66-.08,3.29-6.6,13.88-11,14.06-4.18.17-9.06-2.06-10.52-4.64-.85-1.49-1.74-4.43-1.11-8.12.41-2.41,1.28-4.17,2.48-5.33,1.27-1.22,3.73-2.56,4.15.07.61,3.89-1.86,12.15,3.76,11.02ZM334.7,234.95c.2-3-.14-5.76,1.15-7.33,1.37-1.65,5.31-3.11,6.13.05,1.22,4.67,1.48,14.76,8.07,12.65,6.19-1.98,4.86-13.56,7.47-15.18,2.07-1.29,3.11.4,4.14,5.32.85,4.07-1.39,18.24-11.44,18.59-5.04.17-11.11-1.37-13.19-4.33-1.19-1.71-2.63-5.18-2.33-9.77ZM348.69,213c-1.11-1.72-2.27-5.06-1.39-9.12.57-2.66,1.74-4.55,3.34-5.74,1.71-1.27,4.99-2.57,5.52.4.78,4.37-2.59,13.39,4.9,12.56,7.03-.77,9.39-11.3,12.45-12.32,2.43-.82,4.08.88,3.9,5.42-.14,3.65-8.92,14.95-14.77,14.8-5.56-.14-12.03-3.01-13.95-6ZM376.95,188.94c-4.16.08-9.07-1.97-10.57-4.27-.87-1.32-1.8-3.93-1.23-7.17.37-2.12,1.21-3.66,2.38-4.66,1.25-1.06,3.68-2.2,4.14.13.68,3.43-1.66,10.68,3.93,9.77,5.25-.86,6.8-9.27,9.07-10.18,1.8-.74,3.07.55,3.04,4.16-.03,2.89-6.37,12.13-10.76,12.22ZM369.4,153.13c-.07-1.75.41-3.13,1.32-4.15.97-1.08,3.56-1.45,3.91-.68,1.18,2.66-.91,8.46,5.53,7.05,4.94-1.09,3.12-4.89,5.06-6.05,1.55-.92,3.99-1.09,4.66,1.78.54,2.31-3.51,8.12-7.6,9.01-3.89.85-8.47.06-10.33-1.48-1.07-.89-2.45-2.79-2.55-5.48ZM384.61,208.06c.14-2.71,1-4.77,2.4-6.2,1.48-1.51,4.52-3.31,5.51-.46,1.46,4.19-.46,13.62,6.81,11.63,6.82-1.86,7.5-12.63,10.36-14.12,2.28-1.19,4.17.22,4.71,4.74.44,3.63-6.46,16.16-12.27,16.94-5.51.73-12.35-1.09-14.72-3.74-1.37-1.53-3.03-4.64-2.8-8.79ZM415.86,173.35c.39,2.86-4.51,12.94-8.83,13.67-4.11.7-9.27-.61-11.09-2.66-1.06-1.18-2.37-3.62-2.28-6.91.05-2.15.65-3.8,1.67-4.96,1.08-1.23,3.32-2.72,4.11-.48,1.18,3.3-.06,10.81,5.33,9.08,5.07-1.62,5.36-10.16,7.46-11.41,1.68-.99,3.13.1,3.63,3.67ZM409.15,48.19c1.55-1.93,4.99-2.98,8.46-2.6,3.22.36,7.9,2.12,10.4,3.9l4.56,3.26-1.95,4.55c-1.44,3.35-3.16,4.38-6.51,3.9-2.5-.36-7.48-2.7-11.05-5.2l-6.51-4.56,2.6-3.25ZM410.94,145.49c1.52-.78,2.8.11,3.2,2.99.33,2.31-4.18,10.38-8.07,10.92-3.68.52-8.28-.59-9.9-2.26-.92-.96-2.07-2.94-1.96-5.59.08-1.73.64-3.05,1.56-3.97.98-.98,3-2.16,3.69-.35,1.01,2.67-.18,8.71,4.67,7.37,4.55-1.25,4.91-8.13,6.81-9.11ZM385.46,124.02c1.52,3.33-.77,10.71,6.89,8.76,5.89-1.49,3.56-6.25,5.84-7.76,1.82-1.21,4.75-1.48,5.66,2.13.73,2.9-3.9,10.34-8.77,11.57-4.63,1.17-10.15.29-12.44-1.62-1.31-1.09-3.05-3.45-3.27-6.85-.14-2.21.39-3.97,1.44-5.27,1.11-1.39,4.2-1.93,4.65-.96ZM350.08,94.55c.75-2.71,1.76-4.39,3.66-5.34,1.97-.99,4.56-1.24,4.56.11,0,2.43-2.33,11.3,7.57,9.9,7.6-1.08,8.21-5.98,11.3-7.57,2.45-1.26,6.16-.37,4.85,3.18-1.31,3.55-6.69,11.81-12.98,12.7-5.98.84-13.67-.41-16.28-3.12-1.51-1.56-3.6-6.53-2.68-9.86ZM350.36,121.44c1.32-1.31,4.03-2.89,4.95-.46,1.37,3.58-.24,11.69,6.27,9.89,6.12-1.68,6.6-10.91,9.15-12.23,2.04-1.05,3.76.15,4.3,4.02.43,3.1-5.62,13.93-10.83,14.66-4.96.69-11.13-.79-13.3-3.03-1.24-1.29-2.78-3.95-2.63-7.51.1-2.33.85-4.1,2.09-5.34ZM346.29,148.53c1.44,2.87-.56,9.37,6.46,7.48,5.4-1.45,3.19-5.55,5.27-6.93,1.66-1.09,4.35-1.41,5.24,1.72.71,2.52-3.45,9.14-7.92,10.33-4.24,1.14-9.33.51-11.46-1.1-1.23-.92-2.86-2.94-3.11-5.9-.16-1.93.3-3.48,1.25-4.65,1.01-1.24,3.85-1.78,4.27-.95ZM318.98,119.2c1.32-1.32,4.6-1.53,4.96-.46,1.21,3.63-2.02,11.06,6.19,9.9,6.3-.89,4.41-6.11,6.96-7.43,2.03-1.05,5.11-1,5.65,2.86.44,3.11-5.23,10.34-10.45,11.07-4.95.7-10.6-.85-12.76-3.09-1.25-1.3-2.79-3.95-2.64-7.51.11-2.33.85-4.1,2.09-5.34ZM310.56,146.89c.18-1.93.9-3.38,2.04-4.36,1.21-1.04,4.1-1.08,4.37-.19.92,3.08-2.19,9.13,5.05,8.5,5.57-.48,4.12-4.91,6.41-5.9,1.82-.79,4.52-.63,4.85,2.62.26,2.6-5,8.38-9.6,8.78-4.38.38-9.28-1.14-11.1-3.1-1.04-1.12-2.29-3.4-2.02-6.35ZM302.2,171.19c.69-2.35,1.75-4,3.07-5.01,1.4-1.07,4-2.12,4.11.55.17,3.93-3.23,11.85,2.48,11.37,5.37-.46,8.16-9.77,10.55-10.58,1.91-.65,2.99.92,2.42,4.97-.45,3.25-8.14,13.03-12.53,12.71-4.18-.31-8.77-3.09-9.93-5.82-.67-1.57-1.22-4.59-.17-8.19ZM287.43,206.7c.14-2.22.76-3.89,1.73-5.05,1.04-1.22,3.13-2.67,3.76-.33.92,3.46-.54,11.16,4.44,9.6,4.67-1.46,5.31-10.27,7.27-11.46,1.57-.96,2.84.23,3.13,3.93.24,2.98-4.66,13.17-8.62,13.75-3.76.55-8.38-1.01-9.95-3.21-.9-1.26-1.99-3.83-1.76-7.23ZM292.57,272.06c-4.01.21-8.83-1.29-10.46-4.24-.94-1.7-2.06-5.17-1.8-9.76.18-3-.07-5.75.97-7.33,1.1-1.66,4.24-3.14,4.87.01.94,4.66,1.08,14.75,6.34,12.6,4.94-2.02,3.95-13.59,6.03-15.23,1.66-1.3,2.48.38,3.26,5.29.65,4.07-1.22,18.25-9.21,18.66ZM313.61,295.14c-4.38-.63-9.38-2.89-10.71-5.77-.77-1.66-1.47-4.88-.51-8.79.63-2.56.77-4.99,2.13-6.14,1.43-1.22,5.05-1.87,5.28.99.33,4.21-1.01,12.96,5,12.15,5.65-.75,6.29-10.95,8.79-11.95,1.99-.79,2.62.83,2.75,5.23.11,3.64-4.01,15.52-12.73,14.28ZM337.46,277.51c-4.9-1.07-10.37-4.05-11.64-7.44-.73-1.95-1.25-5.67.18-10.04.93-2.86,1.29-5.61,2.92-6.81,1.74-1.27,5.89-1.71,5.9,1.56.02,4.82-2.24,14.66,4.64,14.24,6.46-.39,8.04-11.95,10.96-12.87,2.32-.74,2.9,1.15,2.67,6.17-.19,4.15-5.86,17.33-15.63,15.19ZM356.57,300.09c-3.04-.33-6.5-1.92-7.43-4.12-.53-1.27-1.02-3.76-.34-6.86.43-2.02.53-3.92,1.47-4.87,1-1.01,3.51-1.64,3.67.58.22,3.28-.71,10.17,3.46,9.32,3.92-.79,4.37-8.78,6.1-9.65,1.38-.69,1.82.55,1.91,3.99.07,2.84-2.8,12.27-8.84,11.61ZM322.66,444.24c-.36,1.43-3.28,4.06-6.5,5.85l-5.85,3.25-1.3,11.71c-.72,6.43-2.48,12.58-3.91,13.65-1.43,1.08-4.06,1.37-5.85.65-1.79-.71-3.54-3.64-3.9-6.5-.36-2.86-1.24-4.32-1.95-3.25-.72,1.07-1.89,4-2.6,6.5-.72,2.51-1.6,5.14-1.95,5.85-.36.72-2.12,1.01-3.91.65-1.78-.35-4.13-2.69-5.2-5.2-1.07-2.5-2.53-6.89-3.25-9.75l-1.3-5.21-.65,5.21c-.36,2.86-1.24,7.54-1.95,10.4l-1.3,5.21-4.55-2.61c-2.51-1.43-5.73-5.52-7.16-9.1s-2.31-9.14-1.95-12.36c.36-3.22,1.53-7.31,2.6-9.1,1.08-1.79,4-4.13,6.51-5.2,2.5-1.08,7.18-2.83,10.4-3.91,4.55-1.51,6.58-3.83,9.1-10.4,1.79-4.65,4.72-9.92,6.51-11.71,1.79-1.78,3.83-2.96,4.55-2.6.72.36,2.76,1.24,4.55,1.95,1.83.73,3.82,4.44,4.55,8.46.99,5.4,2.42,7.47,5.86,8.45,2.5.72,6.01,2.47,7.8,3.9,1.79,1.43,2.96,3.78,2.6,5.21ZM374.69,431.23c2.2-1.76,3.04-5.74,2.6-12.36-.36-5.36-.07-11.8.65-14.3.89-3.11,2.13-4.14,3.9-3.25,1.43.71,3.77,5.1,5.2,9.75,1.43,4.65,3.78,10.8,5.21,13.66l2.6,5.2,5.85-.65c4.58-.51,6-1.64,6.5-5.2.36-2.51,1.53-6.02,2.6-7.81,1.08-1.79,3.42-2.96,5.21-2.6,1.82.37,4.1,3.5,5.2,7.15,1.07,3.58,3.12,7.39,4.55,8.46,1.73,1.29,4.79.42,9.11-2.6,3.68-2.58,7.91-3.99,9.75-3.25,2.23.89,2.84,2.73,1.95,5.85-.71,2.5-4.22,6.31-7.8,8.45-3.58,2.15-11.77,4.49-18.21,5.21-6.44.71-14.34,1.59-17.56,1.95-3.22.35-9.66.65-14.31.65s-11.08.29-14.3.65c-3.22.35-13.76.35-23.41,0-13.65-.51-18.29-1.52-20.81-4.56-1.79-2.14-5.89-5.36-9.11-7.15-3.22-1.79-6.14-4.71-6.5-6.5-.49-2.42.34-3.09,3.25-2.6,2.15.35,5.36-.23,7.15-1.3,1.99-1.2,3.25-4.73,3.25-9.11,0-3.93.88-9.2,1.96-11.7,1.07-2.51,2.82-4.56,3.9-4.56s3.12,1.47,4.55,3.26c1.43,1.78,2.31,8.51,1.95,14.95s.52,13.17,1.95,14.96c1.48,1.84,4.01,2.69,5.85,1.95,2.14-.85,3.7-4.88,4.56-11.7.71-5.73,2.18-12.46,3.25-14.96,1.23-2.88,3.15-4.31,5.2-3.9,2.38.47,3.6,4.15,4.55,13.65.72,7.16,2.47,13.89,3.91,14.96,1.44,1.08,4.05.79,5.85-.65ZM376.38,278.93c-3.5.99-8.02.95-9.98-.77-1.13-.99-2.74-3.18-3.31-6.45-.38-2.13-1.09-4.01-.45-5.33.67-1.39,3.18-3.09,4.3-1.02,1.66,3.07,3.57,10.1,7.83,7.49,4-2.45,1.07-10.34,2.62-11.93,1.24-1.26,2.25-.25,3.82,3.02,1.29,2.71,2.15,13.02-4.83,14.99ZM376.55,247.62c-1.26-1.32-2.95-4.15-3.28-8.17-.21-2.63-.85-4.97.07-6.5.97-1.61,4.2-3.38,5.32-.74,1.65,3.89,3.16,12.61,8.61,9.94,5.11-2.51,2.48-12.38,4.53-14.12,1.64-1.38,2.75-.05,4.27,4.08,1.26,3.42,1.13,15.99-7.54,17.58-4.34.8-9.8.24-11.98-2.07ZM390.75,302.47c-3.04-.33-6.5-1.92-7.43-4.12-.53-1.27-1.02-3.76-.35-6.86.44-2.02.54-3.92,1.48-4.87,1-1.01,3.51-1.64,3.66.58.23,3.28-.7,10.17,3.47,9.33,3.92-.79,4.37-8.79,6.1-9.66,1.38-.69,1.82.55,1.91,3.99.07,2.84-2.8,12.28-8.84,11.61ZM408.85,279.29c-3.62-.41-7.79-2.15-8.96-4.49-.67-1.34-1.33-3.98-.63-7.22.46-2.12.51-4.13,1.6-5.11,1.16-1.03,4.12-1.66,4.37.69.38,3.46-.51,10.69,4.42,9.88,4.63-.75,4.9-9.16,6.94-10.04,1.62-.7,2.18.61,2.39,4.23.17,3-2.93,12.87-10.13,12.06ZM433.25,285.28c1.68,2.29,4.74,11.66-.6,14.58-2.67,1.47-6.43,2.15-8.45.87-1.16-.73-2.98-2.49-4.21-5.42-.79-1.9-1.81-3.52-1.58-4.84.24-1.39,1.94-3.35,3.34-1.62,2.07,2.56,5.24,8.74,8.18,5.66,2.76-2.89-1.46-9.7-.53-11.41.74-1.36,1.81-.59,3.85,2.18Z"/>
    <path class="cls-2" d="M547.67,224.43c2.38.95,3.43.26,3.9-2.6.36-2.15-.81-7.71-2.6-12.36-1.79-4.65-4.71-9.04-6.5-9.75-2.58-1.03-3.39-.23-3.9,3.9-.36,2.86.81,8.42,2.6,12.36s4.71,7.74,6.5,8.45Z"/>
    <path class="cls-2" d="M547.02,321.98c1.43,4.29,3.48,8.68,4.55,9.75,1.25,1.25,2.18-1.33,2.6-7.15.36-5.01-1.69-17.3-4.55-27.31s-6.37-22.89-7.8-28.61c-1.43-5.72-3.77-13.04-5.2-16.26-1.43-3.22-2.89-5.85-3.25-5.85s-.94,3.51-1.3,7.8c-.36,4.29,2.28,19.51,5.85,33.82s7.67,29.52,9.1,33.82Z"/>
    <path class="cls-2" d="M532.71,230.28c.72-1.07.42-5.76-.65-10.41-1.07-4.65-4.29-10.8-7.15-13.66l-5.2-5.2.65,5.85c.36,3.22,2.11,9.66,3.9,14.31,1.79,4.65,4.13,9.04,5.2,9.75,1.07.72,2.54.42,3.25-.65Z"/>
    <path class="cls-2" d="M500.85,310.27c1.79,6.44,4.42,12.29,5.85,13.01,1.82.91,2.21-2.2,1.3-10.41-.72-6.44-1.89-14.05-2.6-16.91-.72-2.86-2.47-11.93-3.9-20.16-1.47-8.48-4.29-16.93-6.5-19.51-2.15-2.5-4.19-3.97-4.55-3.25-.36.72,1.11,11.25,3.25,23.41,2.15,12.16,5.37,27.38,7.15,33.82Z"/>
    <path class="cls-2" d="M517.1,301.16c.72,4.29,2.18,11.32,3.25,15.61,1.07,4.29,3.71,8.97,5.85,10.41l3.9,2.6-.65-11.06c-.36-6.08-2.41-18.96-4.55-28.61-2.15-9.66-4.78-22.24-5.85-27.96s-3.12-11.28-4.55-12.36c-2.04-1.53-2.74.17-3.25,7.8-.36,5.37.52,15.61,1.95,22.76,1.43,7.15,3.19,16.52,3.9,20.81Z"/>
    <path class="cls-2" d="M604.25,138.59c-.72-.72-1.89,1.63-2.6,5.2-.72,3.58.46,13.53,2.6,22.11,2.15,8.58,5.07,17.07,6.5,18.86l2.6,3.25.65-5.85c.36-3.22-1.4-14.05-3.9-24.06-2.5-10.01-5.14-18.79-5.85-19.51Z"/>
    <path class="cls-2" d="M511.9,226.38c0-3.93-.88-9.2-1.95-11.71-1.07-2.5-3.71-6.31-5.85-8.45l-3.9-3.9.65,9.75c.36,5.37,2.11,12.1,3.9,14.96,1.79,2.86,4.13,5.5,5.2,5.85s1.95-2.57,1.95-6.5Z"/>
    <path class="cls-2" d="M470.93,227.68c.36-3.22-.23-9.07-1.3-13.01-1.07-3.93-2.83-7.74-3.9-8.45-1.13-.75-2.23,2-2.6,6.5-.39,4.68.91,10.41,3.25,14.31l3.9,6.5.65-5.85Z"/>
    <path class="cls-2" d="M565.88,315.47c1.07,5.01,3.12,12.32,4.55,16.26,1.43,3.93,4.06,8.03,5.85,9.1l3.25,1.95-.65-7.15c-.36-3.93-3.28-17.98-6.5-31.22-3.22-13.23-6.44-26.4-7.15-29.26s-3.06-11.35-5.2-18.86c-2.15-7.51-4.78-13.95-5.85-14.31-1.07-.36-2.24,2.86-2.6,7.15-.36,4.29.81,14.24,2.6,22.11,1.79,7.87,4.71,18.99,6.5,24.71,1.79,5.72,4.13,14.5,5.2,19.51Z"/>
    <path class="cls-2" d="M649.77,174.35c-1.43-7.51-4.06-18.92-5.85-25.36-1.79-6.44-4.71-12.88-6.5-14.31l-3.25-2.6.65,8.45c.36,4.65,1.24,10.8,1.95,13.66s3.06,14.86,5.2,26.66c2.15,11.8,5.95,31.7,8.45,44.22,2.5,12.52,6.31,30.96,8.45,40.97,2.17,10.11,5.35,19.37,7.15,20.81l3.25,2.6.65-9.75c.36-5.37-2.57-24.68-6.5-42.92-3.93-18.24-8.03-36.68-9.1-40.97-1.07-4.29-3.12-13.95-4.55-21.46Z"/>
    <path class="cls-2" d="M621.15,135.33c-2.65-3.09-4.11-3.71-4.55-1.95-.36,1.43,2.86,21.92,7.15,45.52,4.29,23.61,9.85,52.58,12.36,64.38,2.5,11.8,5.43,24.68,6.5,28.61,1.07,3.93,3.41,8.32,5.2,9.75l3.25,2.6-1.95-14.96c-1.07-8.23-3.12-20.81-4.55-27.96-1.43-7.15-4.36-22.37-6.5-33.82-2.15-11.45-5.95-31.35-8.45-44.22-2.8-14.42-6.05-25.16-8.45-27.96Z"/>
    <path class="cls-2" d="M611.4,204.92c-.36,0-1.24,2.34-1.95,5.2s-1.01,7.84-.65,11.06c.36,3.22,2.11,10.83,3.9,16.91s4.42,16.03,5.85,22.11,4.06,12.23,5.85,13.66l3.25,2.6.65-5.85c.36-3.22-1.69-16.1-4.55-28.61-2.86-12.52-6.67-25.98-8.45-29.91-1.79-3.93-3.54-7.15-3.9-7.15Z"/>
    <path class="cls-2" d="M686.19,207.52c1.43,9.3,3.48,22.47,4.55,29.26,1.07,6.8,3.71,22.01,5.85,33.82,2.15,11.8,4.78,22.63,5.85,24.06,1.07,1.43,2.83,3.19,3.9,3.9,1.15.77,2.22-1.09,2.6-4.55.36-3.22-.52-14.05-1.95-24.06-1.43-10.01-3.19-21.14-3.9-24.71-.72-3.58-3.35-16.75-5.85-29.26-2.5-12.52-6.6-30.66-9.1-40.32-2.5-9.66-5.72-18.73-7.15-20.16-1.92-1.92-2.26.61-1.3,9.75.72,6.8,1.89,15.28,2.6,18.86.72,3.58,2.47,14.11,3.9,23.41Z"/>
    <path class="cls-2" d="M663.43,147.69c-1.07-2.86-3.12-6.08-4.55-7.15-1.43-1.07-2.89-1.95-3.25-1.95s-.65,3.22-.65,7.15,2.05,18.27,4.55,31.87,6.89,35.54,9.75,48.77c2.86,13.23,7.25,33.43,9.75,44.87,2.5,11.45,5.72,21.69,7.15,22.76,2.02,1.51,2.6-.09,2.6-7.15,0-5.01-.59-12.62-1.3-16.91-.72-4.29-3.35-18.05-5.85-30.56-2.5-12.52-7.19-37.1-10.41-54.63s-6.73-34.21-7.8-37.07Z"/>
    <path class="cls-2" d="M568.48,217.92l3.25,2.6.65-5.2c.36-2.86-.81-8.71-2.6-13.01-1.79-4.29-4.71-9.27-6.5-11.06l-3.25-3.25v7.15c0,3.93,1.17,10.08,2.6,13.66,1.43,3.58,4.06,7.67,5.85,9.1Z"/>
    <path class="cls-2" d="M592.54,323.93c.72-1.07,1.59-4.58,1.95-7.8s-1.11-13.46-3.25-22.76c-2.15-9.3-5.37-21.59-7.15-27.31s-4.42-14.79-5.85-20.16c-1.43-5.37-3.77-10.34-5.2-11.06-1.9-.95-2.78.28-3.25,4.55-.36,3.22,1.4,14.34,3.9,24.71,2.5,10.37,7.48,28.52,11.06,40.32,3.58,11.8,7.09,20.58,7.8,19.51Z"/>
    <path class="cls-2" d="M489.79,236.13l1.3-4.55c.72-2.5,1.01-7.19.65-10.41-.36-3.22-2.41-7.9-4.55-10.41-2.15-2.5-4.19-4.55-4.55-4.55s-.65,3.8-.65,8.45,1.76,11.38,3.9,14.96l3.9,6.5Z"/>
    <path class="cls-2" d="M476.13,483.9l-4.55-.65,1.3,4.55c.72,2.5,3.06,6.02,5.2,7.8,2.15,1.79,5.95,2.96,8.45,2.6,2.96-.42,5.01-2.24,5.85-5.2l1.3-4.55-6.5-1.95c-3.58-1.07-8.55-2.24-11.06-2.6Z"/>
    <path class="cls-2" d="M456.62,485.2c-1.79-1.79-6.76-3.25-11.06-3.25-5.25,0-8.23,1.06-9.1,3.25-.72,1.79-.42,7.64.65,13.01,1.07,5.37,4,14.14,6.5,19.51s5.72,10.63,7.15,11.71c1.43,1.07,4.06,2.24,5.85,2.6s4.42-1.11,5.85-3.25c1.43-2.15,2.6-8,2.6-13.01s-1.17-13.2-2.6-18.21-4.06-10.57-5.85-12.36Z"/>
    <path class="cls-2" d="M418.91,490.41c-1.07-2.5-4-5.14-6.5-5.85-2.5-.72-6.31-1.3-8.45-1.3s-4.78,1.46-5.85,3.25c-1.07,1.79-1.95,6.47-1.95,10.41s.59,10.67,1.3,14.96,2.47,13.66,3.9,20.81c1.43,7.15,4.06,14.76,5.85,16.91s5.01,4.19,7.15,4.55c2.15.36,5.37-1.11,7.15-3.25,1.79-2.15,3.54-8.88,3.9-14.96s-.52-17.79-1.95-26.01c-1.43-8.23-3.48-17.01-4.55-19.51Z"/>
    <path class="cls-2" d="M380.54,487.16l-9.75-.65-9.75-.65-1.3,4.55c-.72,2.5-1.3,7.77-1.3,11.71s-.29,9.79-.65,13.01-.65,10.83-.65,16.91,1.17,14.57,2.6,18.86c1.49,4.46,4.55,8.92,7.15,10.41,2.5,1.43,5.72,2.31,7.15,1.95,1.43-.36,3.48-3.28,4.55-6.5,1.07-3.22,2.54-12.58,3.25-20.81.72-8.23,1.3-20.22,1.3-26.66s-.59-14.05-1.3-16.91l-1.3-5.2Z"/>
    <path class="cls-2" d="M682.93,462.44c-1.07,0-3.41,2.05-5.2,4.55-1.79,2.5-5.01,8.65-7.15,13.66-2.15,5.01-8.29,20.81-13.66,35.12-5.37,14.31-10.05,29.52-10.41,33.82s.52,9.56,1.95,11.71c1.43,2.15,3.48,3.32,4.55,2.6s9.27-21.2,18.21-45.52,16.55-45.39,16.91-46.82c.36-1.43-.23-4.06-1.3-5.85s-2.83-3.25-3.9-3.25Z"/>
    <path class="cls-2" d="M473.53,289.46c1.07,5.01,2.83,12.32,3.9,16.26,1.07,3.93,3.12,8.32,4.55,9.75l2.6,2.6.65-7.15c.36-3.93-1.4-17.1-3.9-29.26s-5.72-23.87-7.15-26.01c-1.43-2.15-2.89-3.9-3.25-3.9s-.94,4.1-1.3,9.1-.07,11.45.65,14.31,2.18,9.3,3.25,14.31Z"/>
    <path class="cls-2" d="M620.5,470.25c-1.07-.72-4,.46-6.5,2.6-3.43,2.94-4.39,5.66-3.9,11.06.36,3.93,1.53,8.03,2.6,9.1,1.36,1.36,2.94-.81,5.2-7.15,1.79-5.01,3.54-10.27,3.9-11.71.36-1.43-.23-3.19-1.3-3.9Z"/>
    <path class="cls-2" d="M651.72,472.2c.38-3.4-.44-6.13-1.95-6.5-1.43-.36-4.65,1.11-7.15,3.25-2.5,2.15-6.02,8-7.8,13.01-1.79,5.01-4.13,14.66-5.2,21.46-1.07,6.8-1.66,15.28-1.3,18.86.36,3.58,1.24,6.8,1.95,7.15s2.76-2.28,4.55-5.85c1.79-3.58,5.59-12.94,8.45-20.81s5.79-16.65,6.5-19.51c.72-2.86,1.59-7.84,1.95-11.06Z"/>
    <path class="cls-2" d="M95.05,502.11c-1.79-6.08-5.01-12.52-7.15-14.31-2.15-1.79-4.49-3.54-5.2-3.9s-1.89.81-2.6,2.6c-.72,1.79-.13,8.52,1.3,14.96,1.43,6.44,4.65,16.97,7.15,23.41s5.72,13.17,7.15,14.96l2.6,3.25,1.3-7.8c.72-4.29.72-11.02,0-14.96-.72-3.93-2.76-12.13-4.55-18.21Z"/>
    <path class="cls-2" d="M110.66,484.55c-1.79-1.43-4.13-2.6-5.2-2.6s-2.24,2.63-2.6,5.85c-.36,3.22.52,9.07,1.95,13.01,1.43,3.93,4.06,8.32,5.85,9.75l3.25,2.6,1.3-6.5c.72-3.58.72-9.43,0-13.01-.72-3.58-2.76-7.67-4.55-9.1Z"/>
    <path class="cls-2" d="M266.73,500.16c-1.79-1.43-4.71-2.89-6.5-3.25s-5.01,1.11-7.15,3.25c-2.15,2.15-4.49,6.83-5.2,10.41-.85,4.25-.17,7.63,1.95,9.75,1.79,1.79,5.01,2.96,7.15,2.6s5.37-2.41,7.15-4.55c1.79-2.15,3.84-6.54,4.55-9.75.86-3.87.2-6.73-1.95-8.45Z"/>
    <path class="cls-2" d="M302.5,498.86c-3.58,0-8.55.88-11.06,1.95-2.92,1.25-6.18,5.68-9.1,12.36-2.5,5.72-4.84,13.92-5.2,18.21-.36,4.29.52,9.27,1.95,11.06,1.43,1.79,4.65,2.96,7.15,2.6s6.6-2.99,9.1-5.85c2.5-2.86,5.72-8.71,7.15-13.01,1.43-4.29,3.19-10.73,3.9-14.31.72-3.58,1.59-7.97,1.95-9.75.51-2.55-.75-3.25-5.85-3.25Z"/>
    <path class="cls-2" d="M228.36,493.01c-1.44,1.8-1.73,4.41-.65,5.85,1.07,1.43,3.71,2.31,5.85,1.95,2.15-.36,4.78-2.7,5.85-5.2l1.95-4.55-5.2-.65c-2.95-.37-6.33.76-7.8,2.6Z"/>
    <path class="cls-2" d="M329.16,491.71c-1.79,2.5-5.3,13.92-7.8,25.36-2.5,11.45-4.55,24.91-4.55,29.91,0,5.32,1.35,10.45,3.25,12.36,1.79,1.79,5.01,2.96,7.15,2.6,2.26-.38,5.54-3.66,7.8-7.8,2.15-3.93,4.49-10.08,5.2-13.66s1.89-12.06,2.6-18.86,1.3-17.04,1.3-22.76v-10.41l-5.85-.65c-4.31-.48-6.71.55-9.1,3.9Z"/>
    <path class="cls-2" d="M137.97,417.57c1.07,2.5,3.12,5.72,4.55,7.15l2.6,2.6.65-11.71c.36-6.44.07-15.22-.65-19.51-.72-4.29-3.93-20.97-7.15-37.07-3.22-16.1-7.32-35.12-9.1-42.27-1.79-7.15-4.13-16.52-5.2-20.81-1.07-4.29-4.29-15.41-7.15-24.71-2.86-9.3-6.37-18.96-7.8-21.46-1.43-2.5-2.89-4.55-3.25-4.55s-1.53,2.05-2.6,4.55c-1.07,2.5-1.95,7.48-1.95,11.06s2.05,13.53,4.55,22.11c2.5,8.58,5.14,17.95,5.85,20.81s5.1,20.42,9.75,39.02c4.65,18.6,9.92,42.01,11.71,52.03,1.79,10.01,4.13,20.26,5.2,22.76Z"/>
    <path class="cls-2" d="M208.2,301.82c.36,1.79,1.24,3.54,1.95,3.9s2.18-2.86,3.25-7.15c1.07-4.29,3.71-17.75,5.85-29.91,2.15-12.16,3.61-24.74,3.25-27.96s-.94-5.85-1.3-5.85-1.53,1.17-2.6,2.6c-1.07,1.43-3.41,11.67-5.2,22.76s-3.84,24.26-4.55,29.26c-.72,5.01-1.01,10.57-.65,12.36Z"/>
    <path class="cls-2" d="M74.89,130.13c-3.07,4.22-9.74,21.84-16.26,42.92-6.08,19.67-12.81,41.33-14.96,48.12-2.15,6.8-5.95,19.38-8.45,27.96-2.5,8.58-5.14,19.12-5.85,23.41s-1.01,8.68-.65,9.75c.36,1.07,2.7-1.27,5.2-5.2,2.5-3.93,7.19-15.64,10.41-26.01,3.22-10.37,9.95-31.44,14.96-46.82,5.01-15.38,11.15-34.99,13.66-43.57,2.5-8.58,5.43-19.7,6.5-24.71s1.66-9.98,1.3-11.06c-.36-1.07-2.99,1.27-5.85,5.2Z"/>
    <path class="cls-2" d="M35.22,340.18c4.65,17.88,9.33,35.15,10.41,38.37s5.46,16.97,9.75,30.56c4.29,13.59,8.39,26.47,9.1,28.61s2.76,5.07,4.55,6.5l3.25,2.6.65-7.8c.36-4.29-1.98-18.63-5.2-31.87-3.22-13.23-8.49-33.43-11.71-44.87-3.22-11.45-8.19-27.54-11.06-35.77-2.86-8.23-6.96-17.88-9.1-21.46-2.15-3.58-4.49-6.5-5.2-6.5s-1.89,2.05-2.6,4.55c-.72,2.5,2.5,19.18,7.15,37.07Z"/>
    <path class="cls-2" d="M222.51,198.41c1.79-5.01,3.54-10.57,3.9-12.36.36-1.79.07-4.13-.65-5.2-.77-1.15-2.37.18-3.9,3.25-1.43,2.86-3.77,9.3-5.2,14.31s-2.89,10.86-3.25,13.01l-.65,3.9,3.25-3.9c1.79-2.15,4.71-8,6.5-13.01Z"/>
    <path class="cls-2" d="M149.68,221.83c.36-4.29-.23-9.56-1.3-11.71s-2.24-3.9-2.6-3.9-1.82,2.05-3.25,4.55c-1.43,2.5-2.6,13.04-2.6,23.41s-1.17,26.18-2.6,35.12c-1.43,8.94-2.31,18.6-1.95,21.46s1.53,5.79,2.6,6.5c1.07.72,2.54-.16,3.25-1.95.72-1.79,2.18-12.62,3.25-24.06,1.07-11.45,2.54-25.49,3.25-31.22.72-5.72,1.59-13.92,1.95-18.21Z"/>
    <path class="cls-2" d="M206.9,172.4c-.36,0-2.41,5.56-4.55,12.36-2.15,6.8-4.49,14.7-5.2,17.56-.72,2.86-1.01,5.5-.65,5.85s.36,1.53,0,2.6c-.36,1.07.81.78,2.6-.65,1.79-1.43,5.01-9.33,7.15-17.56,2.15-8.23,3.32-16.13,2.6-17.56-.72-1.43-1.59-2.6-1.95-2.6Z"/>
    <path class="cls-2" d="M147.72,109.32c-.72-.36-2.47,1.69-3.9,4.55-1.43,2.86-4.94,13.98-7.8,24.71s-7.54,27.7-10.41,37.72-5.79,21.14-6.5,24.71c-.72,3.58-.72,6.21,0,5.85.72-.36,2.76-3.58,4.55-7.15,1.79-3.58,5.59-14.7,8.45-24.71,2.86-10.01,6.67-22.6,8.45-27.96,1.79-5.37,4.13-13.27,5.2-17.56,1.07-4.29,2.24-10.44,2.6-13.66.36-3.22.07-6.15-.65-6.5Z"/>
    <path class="cls-2" d="M128.21,100.87l-2.6,5.2c-1.43,2.86-6.41,19.25-11.06,36.42-4.65,17.17-10.8,38.53-13.66,47.47-2.86,8.94-6.37,20.65-7.8,26.01-1.43,5.37-3.19,12.97-3.9,16.91l-1.3,7.15,3.9-2.6c2.29-1.53,5.24-7.42,7.15-14.31,1.79-6.44,7.06-24.58,11.71-40.32s10.8-37.98,13.66-49.42c2.86-11.45,4.91-23.44,4.55-26.66l-.65-5.85Z"/>
    <path class="cls-2" d="M106.1,109.32c-2.04-1.53-3.45-.4-6.5,5.2-2.15,3.93-4.49,9.49-5.2,12.36-.72,2.86-3.06,11.35-5.2,18.86-2.15,7.51-5.95,20.97-8.45,29.91s-6.02,21.53-7.8,27.96c-1.79,6.44-4.71,17.85-6.5,25.36-1.79,7.51-3.54,17.17-3.9,21.46l-.65,7.8,3.9-4.55c2.15-2.5,4.78-6.89,5.85-9.75,1.07-2.86,4-12.52,6.5-21.46s7.48-26.5,11.06-39.02c3.58-12.52,7.97-27.74,9.75-33.82,1.79-6.08,4.42-14.57,5.85-18.86,1.43-4.29,2.89-10.44,3.25-13.66s-.52-6.73-1.95-7.8Z"/>
    <path class="cls-2" d="M72.94,519.67c-1.79-4.29-5.01-12.19-7.15-17.56-2.24-5.61-5.83-10.86-8.45-12.36-3.51-2.01-4.85-1.86-5.85.65-.72,1.79-1.01,6.18-.65,9.75.36,3.58,2.99,12.36,5.85,19.51,2.86,7.15,6.96,18.27,9.1,24.71,2.15,6.44,5.95,15.51,8.45,20.16,2.72,5.05,5.6,8.19,7.15,7.8,1.43-.36,2.89-4.16,3.25-8.45.36-4.29-1.4-14.24-3.9-22.11-2.5-7.87-6.02-17.82-7.8-22.11Z"/>
    <path class="cls-2" d="M251.12,263.45c-1.07,7.87-2.54,17.82-3.25,22.11-.72,4.29-1.01,10.44-.65,13.66.36,3.22,1.53,6.15,2.6,6.5,1.07.36,2.83-1.98,3.9-5.2,1.07-3.22,2.83-13.75,3.9-23.41,1.07-9.66,2.54-20.48,3.25-24.06.72-3.58.72-7.38,0-8.45s-1.59-1.95-1.95-1.95-1.82,1.46-3.25,3.25c-1.43,1.79-3.48,9.69-4.55,17.56Z"/>
    <path class="cls-2" d="M258.93,188.01c-.38-1.51-2.02.14-3.9,3.9-1.79,3.58-5.01,10.89-7.15,16.26s-4.19,11.8-4.55,14.31c-.36,2.5-.07,4.26.65,3.9.72-.36,3.64-4.45,6.5-9.1,2.86-4.65,6.08-12.55,7.15-17.56s1.66-10.27,1.3-11.71Z"/>
    <path class="cls-2" d="M228.36,303.12c.75,2.64,2.12,4,3.25,3.25,1.07-.72,2.54-3.35,3.25-5.85.72-2.5,2.76-15.09,4.55-27.96,1.79-12.88,2.67-25.46,1.95-27.96s-1.59-4.55-1.95-4.55-1.82,2.63-3.25,5.85c-1.43,3.22-3.19,11.41-3.9,18.21-.72,6.8-1.89,15.28-2.6,18.86-.72,3.58-1.59,8.55-1.95,11.06s-.07,6.6.65,9.1Z"/>
    <path class="cls-2" d="M229.66,222.48c.72-.36,2.18-2.7,3.25-5.2s3.41-8.94,5.2-14.31,3.54-11.51,3.9-13.66c.36-2.15.07-4.49-.65-5.2-.72-.72-2.76,1.33-4.55,4.55-1.79,3.22-4.71,10.83-6.5,16.91-1.79,6.08-2.96,12.52-2.6,14.31s1.24,2.96,1.95,2.6Z"/>
    <path class="cls-2" d="M189.99,291.41c-.36,4.65-.07,9.33.65,10.41.72,1.07,2.18,1.37,3.25.65,1.07-.72,2.54-4.23,3.25-7.8.72-3.58,2.47-15.28,3.9-26.01s2.89-23.61,3.25-28.61-.23-9.98-1.3-11.06c-1.35-1.35-2.55-.55-3.9,2.6-1.07,2.5-3.41,15.09-5.2,27.96-1.79,12.88-3.54,27.22-3.9,31.87Z"/>
    <path class="cls-2" d="M164.63,213.37c-.72-.36-2.18,1.98-3.25,5.2-1.07,3.22-2.83,13.46-3.9,22.76s-2.54,20.42-3.25,24.71-1.59,12.49-1.95,18.21-.07,11.28.65,12.36c.72,1.07,1.89,1.66,2.6,1.3.72-.36,1.89-2.7,2.6-5.2.72-2.5,1.59-8.94,1.95-14.31s1.82-16.78,3.25-25.36c1.43-8.58,3.19-19.12,3.9-23.41.72-4.29.72-9.56,0-11.71-.72-2.15-1.89-4.19-2.6-4.55Z"/>
    <path class="cls-2" d="M129.52,254.34c.72-6.44,1.3-16.39,1.3-22.11s-1.17-11.28-2.6-12.36c-1.43-1.07-2.89-1.95-3.25-1.95s-1.24,3.51-1.95,7.8-.72,13.66,0,20.81c.72,7.15,2.18,14.47,3.25,16.26,1.47,2.45,2.27.36,3.25-8.45Z"/>
    <path class="cls-2" d="M628.31,426.03c1.07.72,3.41-.75,5.2-3.25,1.79-2.5,8.23-18.01,14.31-34.47s13.69-37.82,16.91-47.47,6.44-21.07,7.15-25.36,1.01-8.39.65-9.1c-.36-.72-1.24-1.3-1.95-1.3s-2.76,2.93-4.55,6.5c-1.79,3.58-8.23,20.26-14.31,37.07-6.08,16.81-13.4,37.88-16.26,46.82-2.86,8.94-6.08,19.18-7.15,22.76s-1.07,7.09,0,7.8Z"/>
    <path class="cls-2" d="M667.33,401.31c4.65-10.73,10.5-24.19,13.01-29.91s6.31-14.79,8.45-20.16c2.15-5.37,4.78-12.39,5.85-15.61,1.07-3.22,2.54-8.78,3.25-12.36.72-3.58,1.01-7.67.65-9.1-.36-1.43-1.24-2.89-1.95-3.25s-3.06,1.4-5.2,3.9c-2.15,2.5-6.54,12.45-9.75,22.11-3.22,9.66-9.07,25.75-13.01,35.77s-9.2,24.06-11.71,31.22c-2.5,7.15-4.84,15.35-5.2,18.21l-.65,5.2,3.9-3.25c2.15-1.79,7.71-12.03,12.36-22.76Z"/>
    <path class="cls-2" d="M446.22,203.62c-.36,0-.94,4.1-1.3,9.1s.52,11.74,1.95,14.96c1.43,3.22,3.48,6.73,4.55,7.8,1.37,1.37,2.15.4,2.6-3.25.36-2.86.07-8.13-.65-11.71-.72-3.58-2.47-8.84-3.9-11.71-1.43-2.86-2.89-5.2-3.25-5.2Z"/>
    <path class="cls-2" d="M579.53,178.91c-2.15-3.58-4.19-6.5-4.55-6.5s-.94,2.63-1.3,5.85c-.36,3.22,1.11,10.54,3.25,16.26,2.15,5.72,5.37,10.99,7.15,11.71,2.18.87,3.47.23,3.9-1.95.36-1.79-.52-6.76-1.95-11.06-1.43-4.29-4.36-10.73-6.5-14.31Z"/>
    <path class="cls-2" d="M591.89,160.05c-1.79-1.79-3.54-3.25-3.9-3.25s-.65,2.93-.65,6.5,2.05,11.19,4.55,16.91c2.5,5.72,5.43,11.58,6.5,13.01,1.55,2.07,2.08,1.53,2.6-2.6.36-2.86-.81-10.18-2.6-16.26-1.79-6.08-4.71-12.52-6.5-14.31Z"/>
    <path class="cls-2" d="M169.83,290.76c0,4.29.59,8.68,1.3,9.75.72,1.07,1.89,1.66,2.6,1.3s1.89-2.7,2.6-5.2c.72-2.5,1.89-9.82,2.6-16.26.72-6.44,2.47-18.73,3.9-27.31,1.43-8.58,2.6-18.53,2.6-22.11s-.88-7.38-1.95-8.45c-1.23-1.23-2.67-.75-3.9,1.3-1.07,1.79-3.71,15.84-5.85,31.22-2.15,15.38-3.9,31.48-3.9,35.77Z"/>
    <path class="cls-2" d="M588.64,418.22l2.6-3.9c1.43-2.15,5.53-12.68,9.1-23.41s9.14-26.53,12.36-35.12c3.22-8.58,8.49-22.92,11.71-31.87,3.22-8.94,6.15-18.89,6.5-22.11.36-3.22-.23-6.15-1.3-6.5-1.07-.36-3.41,1.11-5.2,3.25-1.79,2.15-4.42,6.24-5.85,9.1-1.43,2.86-4.94,12.52-7.8,21.46-2.86,8.94-6.96,21.53-9.1,27.96-2.15,6.44-5.66,17.85-7.8,25.36-2.15,7.51-4.49,17.17-5.2,21.46-.72,4.29-1.01,9.27-.65,11.06l.65,3.25Z"/>
    <path class="cls-2" d="M608.15,426.03l3.25-3.9c1.79-2.15,4.13-6.54,5.2-9.75,1.07-3.22,2.83-9.36,3.9-13.66,1.07-4.29,4-13.36,6.5-20.16,2.5-6.8,7.48-20.26,11.06-29.91,3.58-9.66,8.26-21.66,10.41-26.66,2.15-5.01,4.19-11.15,4.55-13.66.36-2.5-.52-5.43-1.95-6.5-1.43-1.07-3.19-1.95-3.9-1.95s-2.47,2.34-3.9,5.2c-1.43,2.86-4.36,11.35-6.5,18.86-2.15,7.51-6.54,20.09-9.75,27.96-3.22,7.87-9.36,24.55-13.66,37.07-4.29,12.52-8.1,24.22-8.45,26.01-.36,1.79.23,5.01,1.3,7.15l1.95,3.9Z"/>
    <path class="cls-2" d="M110.01,400.66c1.43,6.08,3.77,15.15,5.2,20.16,1.43,5.01,4.06,9.98,5.85,11.06,1.79,1.07,3.84,1.66,4.55,1.3.72-.36,1.59-2.99,1.95-5.85.36-2.86-2.57-16.32-6.5-29.91-3.93-13.59-8.62-30.86-10.41-38.37s-5.01-21.27-7.15-30.56c-2.15-9.3-5.95-24.81-8.45-34.47s-6.02-20.19-7.8-23.41c-1.79-3.22-4.71-5.85-6.5-5.85s-3.84,1.46-4.55,3.25c-.72,1.79-1.01,5.89-.65,9.1.36,3.22,3.28,13.75,6.5,23.41s8.19,24.87,11.06,33.82,5.79,18.6,6.5,21.46c.72,2.86,2.76,11.64,4.55,19.51,1.79,7.87,4.42,19.28,5.85,25.36Z"/>
    <path class="cls-2" d="M157.48,130.78c-.36,0-1.82,3.22-3.25,7.15-1.43,3.93-4.36,13.88-6.5,22.11-2.15,8.23-4.78,17.59-5.85,20.81-1.07,3.22-2.24,7.02-2.6,8.45-.36,1.43-.07,3.48.65,4.55.72,1.07,3.35-2.73,5.85-8.45,2.5-5.72,5.72-14.5,7.15-19.51,1.43-5.01,3.48-12.62,4.55-16.91,1.07-4.29,1.66-10.14,1.3-13.01s-.94-5.2-1.3-5.2Z"/>
    <path class="cls-2" d="M177.64,200.37c1.43-1.07,4.06-5.46,5.85-9.75,1.79-4.29,3.84-11.32,4.55-15.61.72-4.29.42-9.27-.65-11.06l-1.95-3.25-5.85,16.91c-3.22,9.3-5.56,18.66-5.2,20.81.49,2.96,1.28,3.43,3.25,1.95Z"/>
    <path class="cls-2" d="M88.55,378.55c-3.93-15.38-10.37-40.55-14.31-55.93-3.93-15.38-8.91-30.6-11.06-33.82-2.15-3.22-5.07-5.85-6.5-5.85s-3.19,2.05-3.9,4.55c-.72,2.5-.72,7.48,0,11.06.72,3.58,2.76,10.31,4.55,14.96,1.79,4.65,5.59,18.11,8.45,29.91,2.86,11.8,9.3,36.09,14.31,53.98,5.01,17.88,10.86,35.44,13.01,39.02,2.22,3.7,4.74,5.94,5.85,5.2,1.07-.72,2.24-4.23,2.6-7.8s-.81-11.19-2.6-16.91-6.47-22.99-10.41-38.37Z"/>
    <path class="cls-2" d="M169.83,151.59l-2.6,4.55c-1.43,2.5-4.06,9.53-5.85,15.61-1.79,6.08-3.54,14.57-3.9,18.86l-.65,7.8,3.25-4.55c1.79-2.5,5.01-10.99,7.15-18.86,2.15-7.87,3.61-16.36,3.25-18.86l-.65-4.55Z"/>
    <path class="cls-2" d="M591.89,222.48c-1.07-.36-2.54,1.4-3.25,3.9s-.42,8.94.65,14.31c1.07,5.37,2.83,12.1,3.9,14.96s2.54,7.54,3.25,10.41,2.47,10.47,3.9,16.91c1.43,6.44,3.48,12.88,4.55,14.31,1.49,1.98,2.26.74,3.25-5.2.73-4.36-.99-18.42-3.9-31.87-2.86-13.23-6.37-26.99-7.8-30.56-1.43-3.58-3.48-6.8-4.55-7.15Z"/>
  </g>
</svg>